<?xml version="1.0" encoding="UTF-8" standalone="no"?>
<svg
   version="1.1"
   id="Layer_1"
   x="0px"
   y="0px"
   width="100%"
   viewBox="0 0 252 367"
   enable-background="new 0 0 252 367"
   xml:space="preserve"
   sodipodi:docname="SCIO_2.svg"
   inkscape:version="1.2.2 (b0a8486541, 2022-12-01)"
   xmlns:inkscape="http://www.inkscape.org/namespaces/inkscape"
   xmlns:sodipodi="http://sodipodi.sourceforge.net/DTD/sodipodi-0.dtd"
   xmlns="http://www.w3.org/2000/svg"
   xmlns:svg="http://www.w3.org/2000/svg"><defs
   id="defs488" /><sodipodi:namedview
   id="namedview486"
   pagecolor="#ffffff"
   bordercolor="#666666"
   borderopacity="1.0"
   inkscape:showpageshadow="2"
   inkscape:pageopacity="0.0"
   inkscape:pagecheckerboard="0"
   inkscape:deskcolor="#d1d1d1"
   showgrid="false"
   inkscape:zoom="2.373297"
   inkscape:cx="119.2434"
   inkscape:cy="183.5"
   inkscape:window-width="2560"
   inkscape:window-height="1080"
   inkscape:window-x="0"
   inkscape:window-y="0"
   inkscape:window-maximized="1"
   inkscape:current-layer="Layer_1" />




<path
   fill="#1CE58D"
   opacity="1.000000"
   stroke="none"
   d=" M145.834656,299.007416   C145.889206,313.992889 146.505386,329.003967 145.824112,343.955902   C145.259277,356.352295 140.285812,362.938324 127.422508,364.622253   C122.240929,365.300598 116.388954,362.446442 111.106445,360.487183   C89.498856,352.473053 68.004936,344.153015 46.445385,336.008575   C35.516125,331.879852 24.307116,328.392487 13.685024,323.595581   C9.028283,321.492645 5.522729,316.840515 1.247227,313.672943   C1.000000,311.958344 1.000000,309.916656 1.468657,307.437500   C24.556147,306.999969 47.175083,307.031677 69.793648,306.954193   C72.235619,306.945831 74.675415,306.304169 77.494232,305.986206   C87.465340,309.611023 97.058411,313.205933 107.165756,316.993561   C107.165756,310.202240 107.165756,304.099976 107.623634,297.998260   C110.570473,297.999237 113.086014,298.230804 115.542458,297.948364   C119.715019,297.468658 123.850349,296.665039 128.265823,296.254639   C130.362137,297.339874 132.142578,298.702454 134.036499,298.884491   C137.937119,299.259399 141.898346,299.003662 145.834656,299.007416  z"
   id="path277" />
<path
   fill="#20E590"
   opacity="1.000000"
   stroke="none"
   d=" M77.116211,305.956238   C74.675415,306.304169 72.235619,306.945831 69.793648,306.954193   C47.175083,307.031677 24.556147,306.999969 1.468657,307.000000   C1.000000,303.638702 1.000000,300.277435 1.000002,296.458069   C1.646520,295.718353 2.530865,295.616913 2.902227,295.126770   C6.111496,290.891144 9.567259,287.036926 15.910150,286.138794   C18.794788,286.522675 20.913116,286.958130 23.033415,286.967957   C36.603233,287.030853 50.174557,286.915985 63.742466,287.088745   C65.837456,287.115417 67.917442,288.320648 69.753738,289.201996   C67.667580,290.281616 65.832054,291.140015 63.631626,292.064636   C62.330765,292.425812 61.221767,292.497620 60.494621,293.061707   C58.948948,294.260742 57.601864,295.715790 56.173363,297.065887   C57.747055,298.440704 59.150757,300.127563 60.941822,301.103363   C62.765518,302.096924 64.970505,302.390656 67.348854,303.144958   C70.452324,303.864471 73.215485,304.429779 76.187012,305.004425   C76.395370,305.013763 76.812508,305.018433 76.899796,305.249207   C76.987076,305.479980 77.116211,305.956238 77.116211,305.956238  z"
   id="path279" />
<path
   fill="#45DEB6"
   opacity="1.000000"
   stroke="none"
   d=" M7.233377,158.831848   C5.325092,156.667328 3.416805,154.502823 1.254259,152.669159   C1.000000,150.958328 1.000000,148.916672 1.468657,146.437500   C22.207230,145.999878 42.477573,146.058685 62.746418,145.911011   C64.837410,145.895782 66.919449,144.649612 69.402313,144.002991   C71.902672,144.337616 74.006363,144.643829 76.494087,144.971283   C86.265404,148.622406 95.652695,152.252319 104.705856,156.134613   C102.245720,156.591324 100.119957,156.970444 97.993660,156.973526   C70.420334,157.013580 42.846695,156.949799 15.273926,157.080200   C12.591042,157.092896 9.913434,158.221329 7.233377,158.831848  z"
   id="path281" />
<path
   fill="#3AD5DA"
   opacity="1.000000"
   stroke="none"
   d=" M253.000000,67.666672   C252.326813,68.594009 251.316925,69.059937 251.034409,69.802567   C249.027542,75.078056 245.659988,79.115143 240.042969,81.615707   C227.653091,76.832703 215.913803,72.100365 202.656982,76.766556   C200.510941,76.356224 198.707809,76.029831 196.903610,76.023743   C183.761337,75.979446 170.617737,76.082214 157.477707,75.905098   C155.629959,75.880188 153.799301,74.585724 152.134705,73.555710   C160.165054,70.136993 168.021454,67.041473 176.159180,63.966690   C176.628281,63.998158 176.816055,64.008888 177.161987,64.376297   C179.335129,65.155281 181.348770,65.937416 183.365311,65.944916   C206.576614,66.031204 229.788376,65.999969 253.000000,66.000000   C253.000000,66.444443 253.000000,66.888893 253.000000,67.666672  z"
   id="path283" />
<path
   fill="#33E39D"
   opacity="1.000000"
   stroke="none"
   d=" M251.047852,220.891815   C251.536545,221.155243 252.025253,221.418671 252.756973,221.341049   C253.000000,223.041672 253.000000,225.083328 253.000000,227.562500   C252.342651,228.405533 251.367798,228.660461 251.090012,229.246063   C250.375305,230.752640 249.969421,232.405685 248.645645,234.119446   C243.069244,233.774155 238.241776,233.579132 233.516327,232.780579   C226.789459,231.643814 220.226837,230.480316 213.416214,232.735474   C210.187729,233.804474 206.546356,233.914719 203.087143,233.947815   C189.626373,234.076584 176.163300,234.048569 162.701965,233.953552   C160.426819,233.937515 158.156036,233.304337 156.070328,232.629211   C163.133926,229.851105 170.010437,227.400055 177.252289,224.907623   C179.412384,224.247620 181.207108,223.628998 183.380798,222.979065   C186.840073,221.994751 189.920364,221.041748 193.166534,220.438522   C194.698944,221.191315 196.063782,221.938217 197.432281,221.944916   C213.895248,222.025650 230.358871,222.023727 246.821899,221.948685   C248.232132,221.942261 249.639267,221.260086 251.047852,220.891815  z"
   id="path285" />
<path
   fill="#46DDBA"
   opacity="1.000000"
   stroke="none"
   d=" M69.005638,143.974609   C66.919449,144.649612 64.837410,145.895782 62.746418,145.911011   C42.477573,146.058685 22.207230,145.999878 1.468657,146.000000   C1.000000,142.638718 1.000000,139.277420 0.999999,135.458069   C2.079592,134.101318 3.159186,133.202652 4.995285,132.147278   C19.782114,132.299774 33.812298,132.615387 47.842865,132.913177   C50.902725,132.978134 53.963936,132.979340 56.870228,133.350983   C55.175720,137.178848 56.413937,139.223114 59.987202,140.160004   C62.011593,140.690781 63.997440,141.368561 66.273529,142.115143   C67.366158,142.824966 68.185898,143.399796 69.005638,143.974609  z"
   id="path287" />
<path
   fill="#35D4DE"
   opacity="1.000000"
   stroke="none"
   d=" M253.000000,65.571533   C229.788376,65.999969 206.576614,66.031204 183.365311,65.944916   C181.348770,65.937416 179.335129,65.155281 177.553482,64.347450   C184.627853,61.458496 193.024139,61.962971 197.455261,54.003830   C201.555374,55.001480 205.226135,56.770596 208.937561,56.860443   C222.656418,57.192562 236.388687,56.969925 250.115921,56.955811   C250.913605,58.190914 251.711304,59.426010 252.754501,60.330555   C253.000000,61.714359 253.000000,63.428715 253.000000,65.571533  z"
   id="path289" />
<path
   fill="#2FE39A"
   opacity="1.000000"
   stroke="none"
   d=" M155.883240,232.956299   C158.156036,233.304337 160.426819,233.937515 162.701965,233.953552   C176.163300,234.048569 189.626373,234.076584 203.087143,233.947815   C206.546356,233.914719 210.187729,233.804474 213.416214,232.735474   C220.226837,230.480316 226.789459,231.643814 233.516327,232.780579   C238.241776,233.579132 243.069244,233.774155 248.360184,234.323700   C246.417892,236.876984 244.396210,240.298416 241.434158,241.633530   C232.779999,245.534302 223.750610,248.602600 214.251038,251.774780   C202.673386,237.504227 207.464890,236.530899 190.221237,243.172775   C189.774216,243.344955 189.404922,243.718918 188.620255,244.021423   C184.159439,245.694550 180.077744,247.345001 175.624054,249.063660   C171.834045,250.413620 168.416016,251.695374 164.658936,253.046661   C162.880478,253.751251 161.441055,254.386337 159.715424,255.059555   C158.940002,255.383377 158.450806,255.669037 157.583923,255.991943   C155.042740,256.787354 152.879227,257.545502 150.403717,258.370056   C148.403290,258.997101 146.714890,259.557709 145.022705,259.657593   C145.006363,256.461548 144.993805,253.726181 144.986908,250.528168   C145.337509,245.348236 145.682434,240.630966 146.408279,235.940445   C149.820557,234.963577 152.851898,233.959946 155.883240,232.956299  z"
   id="path291" />
<path
   fill="#22DC8C"
   opacity="1.000000"
   stroke="none"
   d=" M145.907181,298.543274   C141.898346,299.003662 137.937119,299.259399 134.036499,298.884491   C132.142578,298.702454 130.362137,297.339874 128.265457,295.786285   C128.004791,286.705017 128.008987,278.349243 128.420593,270.076172   C134.162750,270.446259 139.497498,270.733643 144.871948,271.430359   C145.232162,273.886108 145.552673,275.932495 145.873199,277.978912   C145.908722,284.678986 145.944214,291.379089 145.907181,298.543274  z"
   id="path293" />
<path
   fill="#2BDB93"
   opacity="1.000000"
   stroke="none"
   d=" M188.999374,243.998779   C189.404922,243.718918 189.774216,243.344955 190.221237,243.172775   C207.464890,236.530899 202.673386,237.504227 213.866791,251.802444   C209.001801,254.038834 203.903778,256.025177 198.396194,257.697357   C196.852615,255.617081 195.751343,253.828873 194.577026,252.089981   C192.743820,249.375351 190.861115,246.694153 188.999374,243.998779  z"
   id="path295" />
<path
   fill="#26D08A"
   opacity="1.000000"
   stroke="none"
   d=" M164.998001,252.977142   C168.416016,251.695374 171.834045,250.413620 175.910934,249.235840   C179.714569,253.836609 182.859329,258.333405 186.004105,262.830200   C181.903076,264.468109 177.802063,266.106049 173.184967,267.579590   C170.111923,262.602539 167.554962,257.789856 164.998001,252.977142  z"
   id="path297" />
<path
   fill="#29D48E"
   opacity="1.000000"
   stroke="none"
   d=" M186.378235,262.887329   C182.859329,258.333405 179.714569,253.836609 176.282928,249.167633   C180.077744,247.345001 184.159439,245.694550 188.620255,244.021439   C190.861115,246.694153 192.743820,249.375351 194.577026,252.089981   C195.751343,253.828873 196.852615,255.617081 198.011169,257.751953   C194.274612,259.728638 190.513489,261.336578 186.378235,262.887329  z"
   id="path299" />
<path
   fill="#23C280"
   opacity="1.000000"
   stroke="none"
   d=" M164.658936,253.046661   C167.554962,257.789856 170.111923,262.602539 172.825897,267.680115   C170.241379,268.956055 167.499863,269.967163 164.135818,270.747070   C161.654617,269.677338 159.795929,268.838837 157.794006,267.747131   C157.139648,267.247040 156.628510,267.000122 156.114868,266.405945   C156.347595,264.472595 156.582809,262.886505 156.869217,260.955414   C154.680557,260.955414 152.885864,260.955414 151.059448,260.620178   C150.923737,259.624512 150.819733,258.964081 150.715729,258.303650   C152.879227,257.545502 155.042740,256.787354 157.670120,256.258728   C158.756531,255.999298 159.379089,255.510361 160.001648,255.021423   C161.441055,254.386337 162.880478,253.751251 164.658936,253.046661  M161.492935,266.534973   C161.492935,266.534973 161.474564,266.490112 161.492935,266.534973  z"
   id="path301" />
<path
   fill="#138350"
   opacity="1.000000"
   stroke="none"
   d=" M150.403717,258.370087   C150.819733,258.964081 150.923737,259.624512 151.083328,260.971069   C152.798416,263.355865 154.457901,265.054535 156.117386,266.753204   C156.628510,267.000122 157.139648,267.247040 157.546082,267.899567   C157.300110,269.569214 157.158859,270.833221 157.017593,272.097260   C155.374115,277.255524 150.154663,276.083740 146.263031,277.965698   C145.552673,275.932495 145.232162,273.886108 144.924164,270.974274   C144.966614,266.778656 144.996552,263.448486 145.026489,260.118286   C146.714890,259.557709 148.403290,258.997101 150.403717,258.370087  z"
   id="path303" />
<path
   fill="#1EAF71"
   opacity="1.000000"
   stroke="none"
   d=" M157.357895,272.190979   C157.158859,270.833221 157.300110,269.569214 157.689316,268.152771   C159.795929,268.838837 161.654617,269.677338 163.755035,270.752014   C161.897247,271.420380 159.797729,271.852539 157.357895,272.190979  z"
   id="path305" />
<path
   fill="#46DAC1"
   opacity="1.000000"
   stroke="none"
   d=" M57.024525,133.009918   C53.963936,132.979340 50.902725,132.978134 47.842865,132.913177   C33.812298,132.615387 19.782114,132.299774 5.317636,131.973938   C8.951063,129.452820 12.783350,126.388382 17.134954,124.559822   C26.338650,120.692383 35.813572,117.470421 45.900177,114.188232   C48.581669,114.595177 50.539562,114.965073 52.498898,114.972885   C65.607857,115.025208 78.718513,114.905762 91.824814,115.099487   C93.863144,115.129623 95.882019,116.475647 97.601196,117.325577   C95.132156,118.544212 92.971817,119.650429 90.658661,120.767517   C90.505852,120.778397 90.236809,120.925011 89.930786,121.014595   C89.313805,121.389183 89.002838,121.674187 88.306274,121.949173   C84.279114,123.291451 80.637573,124.643753 76.631813,126.056519   C73.175102,127.408714 70.082603,128.700439 66.613518,130.014374   C63.166130,131.027695 60.095329,132.018799 57.024525,133.009918  z"
   id="path307" />
<path
   fill="#45D9C8"
   opacity="1.000000"
   stroke="none"
   d=" M97.909889,117.213165   C95.882019,116.475647 93.863144,115.129623 91.824814,115.099487   C78.718513,114.905762 65.607857,115.025208 52.498898,114.972885   C50.539562,114.965073 48.581669,114.595177 46.286919,114.142288   C59.677753,108.598297 73.404778,103.304779 87.902557,98.147476   C90.636856,98.522369 92.599236,98.955841 94.564133,98.967522   C105.706116,99.033775 116.848701,98.999100 127.993851,99.453117   C128.001770,102.941025 128.006927,105.974602 128.010254,109.444717   C127.997299,111.918541 127.986198,113.955803 127.557861,116.023727   C120.598289,116.366997 114.055962,116.679626 107.433212,116.634003   C105.420868,111.911652 103.111275,116.220802 100.698059,116.084671   C99.927597,117.019783 99.458046,117.869301 98.741760,118.820282   C98.323799,118.969810 98.152565,119.017868 97.966965,118.756287   C97.938370,118.035484 97.924126,117.624329 97.909889,117.213165  z"
   id="path309" />
<path
   fill="#3FD6D4"
   opacity="1.000000"
   stroke="none"
   d=" M151.960739,73.878906   C153.799301,74.585724 155.629959,75.880188 157.477707,75.905098   C170.617737,76.082214 183.761337,75.979446 196.903610,76.023743   C198.707809,76.029831 200.510941,76.356224 202.411743,76.981865   C201.005569,78.285118 199.502213,79.140831 197.619751,80.019943   C193.490540,81.368546 189.740387,82.693748 185.658630,84.163208   C181.539566,85.859665 177.752075,87.411865 173.591125,88.995331   C170.807083,89.701965 168.396530,90.377335 165.668243,91.194679   C162.526611,92.774887 159.702728,94.213120 156.532272,95.738602   C154.476593,96.479149 152.767487,97.132446 150.676147,97.791458   C149.534470,97.882797 148.775024,97.968422 147.954163,97.714615   C146.929535,96.250336 145.966293,95.125496 145.001526,94.000320   C145.000000,94.000000 145.000000,93.996948 145.001251,93.534607   C145.001862,90.770302 145.019943,88.468147 144.996964,86.166405   C144.936523,80.113258 143.993301,79.112297 138.300232,79.001396   C128.903473,78.818329 128.298203,79.229362 127.585876,86.080109   C120.506195,86.440033 113.836067,86.719238 107.165939,86.998436   C107.116989,83.302597 107.068031,79.606758 107.549606,75.455292   C120.662834,74.667015 133.245529,74.334358 146.014130,74.333572   C148.120270,74.403252 150.040497,74.141075 151.960739,73.878906  z"
   id="path311" />
<path
   fill="#2BD2E7"
   opacity="1.000000"
   stroke="none"
   d=" M221.039932,38.880615   C228.283295,41.687019 235.526672,44.493431 242.548248,47.791565   C240.210114,48.522053 238.094742,48.956669 235.977219,48.967449   C223.251999,49.032230 210.525940,48.951561 197.801056,49.044579   C195.536774,49.061127 193.276794,49.663555 190.644119,49.929588   C186.847977,48.899639 183.422516,47.935558 179.747330,46.725815   C174.880249,43.854988 170.166138,42.179569 164.574371,45.030029   C156.593658,45.705181 149.042175,46.707287 141.468704,46.917561   C130.042023,47.234825 118.600006,46.999321 107.164505,46.998760   C107.116257,45.281853 107.068008,43.564945 107.551094,41.424202   C132.579117,41.937653 157.048111,38.871002 181.584930,40.846542   C192.828018,41.751759 204.206116,41.095177 215.518906,40.905045   C217.370071,40.873928 219.200134,39.587078 221.039932,38.880615  z"
   id="path313" />
<path
   fill="#22D1ED"
   opacity="1.000000"
   stroke="none"
   d=" M107.166321,36.999031   C107.117256,34.955048 107.068192,32.911060 107.550522,30.434185   C134.155670,30.001221 160.229584,30.039394 186.302811,29.921967   C188.204849,29.913401 190.101791,28.777149 192.001114,28.165184   C197.896255,30.186516 203.791382,32.207848 209.709686,34.924660   C207.734756,36.080009 205.737671,36.935471 203.738403,36.940647   C171.547867,37.024071 139.357071,36.999268 107.166321,36.999031  z"
   id="path315" />
<path
   fill="#39D4DA"
   opacity="1.000000"
   stroke="none"
   d=" M145.828217,74.001709   C133.245529,74.334358 120.662834,74.667015 107.622009,74.999451   C107.115112,71.634743 107.066353,68.270271 107.548126,64.452866   C120.663544,63.333401 133.248428,62.666855 145.906143,62.455986   C145.928726,66.608345 145.878464,70.305023 145.828217,74.001709  z"
   id="path317" />
<path
   fill="#25D2EB"
   opacity="1.000000"
   stroke="none"
   d=" M107.093315,37.395153   C139.357071,36.999268 171.547867,37.024071 203.738403,36.940647   C205.737671,36.935471 207.734756,36.080009 209.887924,35.252541   C213.587906,35.997795 217.132797,37.110657 220.858826,38.552063   C219.200134,39.587078 217.370071,40.873928 215.518906,40.905045   C204.206116,41.095177 192.828018,41.751759 181.584930,40.846542   C157.048111,38.871002 132.579117,41.937653 107.624344,41.000336   C107.117607,39.930622 107.068954,38.860950 107.093315,37.395153  z"
   id="path319" />
<path
   fill="#16CFF4"
   opacity="1.000000"
   stroke="none"
   d=" M165.043869,17.888493   C170.260757,19.670818 175.477646,21.453146 180.535675,23.814678   C178.414627,24.595966 176.452774,24.970211 174.490219,24.973803   C152.049057,25.014883 129.607788,24.999525 107.166550,24.999222   C107.117622,23.281910 107.068687,21.564596 107.551529,19.423512   C125.002510,18.999866 141.921906,19.038015 158.840652,18.951056   C160.910172,18.940418 162.976212,18.259033 165.043869,17.888493  z"
   id="path321" />
<path
   fill="#1BD0F1"
   opacity="1.000000"
   stroke="none"
   d=" M107.093216,25.411720   C129.607788,24.999525 152.049057,25.014883 174.490219,24.973803   C176.452774,24.970211 178.414627,24.595966 180.713242,24.143795   C184.476608,25.211243 187.903534,26.528776 191.665802,28.005749   C190.101791,28.777149 188.204849,29.913401 186.302811,29.921967   C160.229584,30.039394 134.155670,30.001221 107.623795,30.001451   C107.117065,28.609146 107.068481,27.216684 107.093216,25.411720  z"
   id="path323" />
<path
   fill="#2ED2E4"
   opacity="1.000000"
   stroke="none"
   d=" M107.091370,47.431797   C118.600006,46.999321 130.042023,47.234825 141.468704,46.917561   C149.042175,46.707287 156.593658,45.705181 164.557510,45.391609   C164.042328,47.249649 163.056412,48.737415 162.223495,50.306400   C161.085526,52.449966 160.064011,54.655350 158.616531,56.897217   C154.639984,55.585171 151.054581,54.166634 147.415192,52.903652   C147.058548,52.779888 146.369980,53.612591 145.377136,54.001434   C132.333664,54.001381 119.748543,54.001221 107.163414,54.001064   C107.115021,51.955654 107.066628,49.910244 107.091370,47.431797  z"
   id="path325" />
<path
   fill="#2ED2E4"
   opacity="1.000000"
   stroke="none"
   d=" M191.014816,49.995453   C193.276794,49.663555 195.536774,49.061127 197.801056,49.044579   C210.525940,48.951561 223.251999,49.032230 235.977219,48.967449   C238.094742,48.956669 240.210114,48.522053 242.716980,48.116875   C245.409821,50.705952 247.712173,53.461445 250.065216,56.586372   C236.388687,56.969925 222.656418,57.192562 208.937561,56.860443   C205.226135,56.770596 201.555374,55.001480 197.326111,53.678989   C194.862457,52.235043 192.938629,51.115250 191.014816,49.995453  z"
   id="path327" />
<path
   fill="#0DCEF8"
   opacity="1.000000"
   stroke="none"
   d=" M164.866333,17.559839   C162.976212,18.259033 160.910172,18.940418 158.840652,18.951056   C141.921906,19.038015 125.002510,18.999866 107.625275,18.999599   C108.547615,16.391291 109.927994,13.783119 111.965889,11.284072   C123.026291,11.589087 133.428802,11.818359 143.832596,11.930392   C144.899170,11.941877 145.973328,11.251687 147.043961,10.887094   C152.925568,13.001792 158.807190,15.116489 164.866333,17.559839  z"
   id="path329" />
<path
   fill="#35D4DE"
   opacity="1.000000"
   stroke="none"
   d=" M107.090652,54.450195   C119.748543,54.001221 132.333664,54.001381 145.449890,54.440746   C145.931747,57.253407 145.882523,59.626854 145.833298,62.000305   C133.248428,62.666855 120.663544,63.333401 107.620956,63.999619   C107.114784,60.965969 107.066330,57.932648 107.090652,54.450195  z"
   id="path331" />
<path
   fill="#42D8CF"
   opacity="1.000000"
   stroke="none"
   d=" M107.093185,87.402740   C113.836067,86.719238 120.506195,86.440033 127.587021,86.524391   C127.999573,89.259308 128.001450,91.630669 128.003174,94.418442   C127.999062,96.222839 127.995071,97.610809 127.991081,98.998779   C116.848701,98.999100 105.706116,99.033775 94.564133,98.967522   C92.599236,98.955841 90.636856,98.522369 88.282761,98.117271   C93.499313,95.661415 99.151787,93.472977 104.673569,90.993492   C105.721497,90.522926 106.251472,88.898872 107.093185,87.402740  z"
   id="path333" />
<path
   fill="#05CDFC"
   opacity="1.000000"
   stroke="none"
   d=" M146.863617,10.556351   C145.973328,11.251687 144.899170,11.941877 143.832596,11.930392   C133.428802,11.818359 123.026291,11.589087 112.287170,11.142875   C117.457916,4.553644 124.406029,2.492426 132.085632,5.059340   C136.980270,6.695380 141.819305,8.497795 146.863617,10.556351  z"
   id="path335" />
<path
   fill="#3FE0AA"
   opacity="1.000000"
   stroke="none"
   d=" M95.185150,193.442505   C85.046852,189.625885 74.908554,185.809250 64.643715,181.620239   C66.732559,180.831940 68.946983,180.059921 71.163490,180.053879   C100.720711,179.973312 130.278275,180.022263 159.835556,179.952072   C161.906235,179.947159 163.975266,179.258118 166.045074,178.887207   C176.263489,182.676056 186.481903,186.464905 196.539581,190.823334   C194.422562,191.595291 192.466873,191.965866 190.509888,191.972992   C176.587433,192.023682 162.664490,191.961609 148.742355,192.044876   C146.826553,192.056320 144.914368,192.671753 142.667175,193.005493   C141.889420,193.001694 141.445023,192.999924 140.875214,192.665680   C134.930267,190.911819 129.020508,188.040833 123.311501,188.396133   C113.867935,188.983856 104.553818,191.651352 95.185150,193.442505  z"
   id="path337" />
<path
   fill="#41DFAE"
   opacity="1.000000"
   stroke="none"
   d=" M165.858582,178.562317   C163.975266,179.258118 161.906235,179.947159 159.835556,179.952072   C130.278275,180.022263 100.720711,179.973312 71.163490,180.053879   C68.946983,180.059921 66.732559,180.831940 64.271263,181.540894   C54.120888,178.141205 44.216415,174.448502 34.467194,170.181274   C36.581047,169.404510 38.539413,169.028824 40.498291,169.026138   C68.375816,168.987778 96.253693,169.055206 124.130501,168.909729   C126.762939,168.895981 129.388779,167.620972 132.391174,166.985046   C136.764847,168.241852 140.765015,169.445175 145.103317,170.731293   C145.670334,170.852493 145.899216,170.890915 146.128098,170.929321   C152.642776,173.365356 159.157440,175.801392 165.858582,178.562317  z"
   id="path339" />
<path
   fill="#3AE1A4"
   opacity="1.000000"
   stroke="none"
   d=" M219.981232,199.165100   C228.257797,202.546951 236.534363,205.928818 244.547333,209.719620   C241.831604,210.418976 239.381058,210.943451 236.927017,210.960388   C224.500168,211.046158 212.071991,210.951218 199.645370,211.052200   C197.751434,211.067581 195.863129,211.776413 193.679626,212.229492   C190.931488,211.544800 188.475952,210.795120 185.704727,209.877655   C182.262329,208.485382 179.135651,207.260910 175.682892,205.880524   C172.569473,204.492065 169.782135,203.259521 167.270416,201.757141   C169.765015,200.991699 171.979889,200.089737 174.203659,200.067230   C187.517197,199.932480 200.832962,200.033905 214.147476,199.962814   C216.093430,199.952423 218.036713,199.443405 219.981232,199.165100  z"
   id="path341" />
<path
   fill="#36E2A0"
   opacity="1.000000"
   stroke="none"
   d=" M193.972229,212.164505   C195.863129,211.776413 197.751434,211.067581 199.645370,211.052200   C212.071991,210.951218 224.500168,211.046158 236.927017,210.960388   C239.381058,210.943451 241.831604,210.418976 244.701294,210.044556   C247.081161,213.345627 249.043503,216.730682 251.026840,220.503784   C249.639267,221.260086 248.232132,221.942261 246.821899,221.948685   C230.358871,222.023727 213.895248,222.025650 197.432281,221.944916   C196.063782,221.938217 194.698944,221.191315 193.521790,220.341721   C196.460190,218.738266 199.209198,217.581406 202.328445,216.268723   C199.271942,214.767502 196.622086,213.466003 193.972229,212.164505  z"
   id="path343" />
<path
   fill="#3BE0A6"
   opacity="1.000000"
   stroke="none"
   d=" M219.644089,198.992401   C218.036713,199.443405 216.093430,199.952423 214.147476,199.962814   C200.832962,200.033905 187.517197,199.932480 174.203659,200.067230   C171.979889,200.089737 169.765015,200.991699 166.896118,201.750336   C165.497375,202.005920 164.748550,201.998444 163.734680,201.765625   C160.647537,200.363052 157.825470,199.185806 154.672455,197.857727   C150.561172,196.140427 146.780853,194.573975 143.000519,193.007538   C144.914368,192.671753 146.826553,192.056320 148.742355,192.044876   C162.664490,191.961609 176.587433,192.023682 190.509888,191.972992   C192.466873,191.965866 194.422562,191.595291 196.715454,191.142731   C204.470367,193.534897 211.888657,196.177292 219.644089,198.992401  z"
   id="path345" />
<path
   fill="#3ED3D0"
   opacity="1.000000"
   stroke="none"
   d=" M197.998840,79.996536   C199.502213,79.140831 201.005569,78.285118 202.754166,77.214096   C215.913803,72.100365 227.653091,76.832703 239.693726,81.640030   C230.242783,85.545082 220.505600,89.251312 210.309479,92.568695   C205.899979,88.118759 201.949417,84.057648 197.998840,79.996536  z"
   id="path347" />
<path
   fill="#3AB59C"
   opacity="1.000000"
   stroke="none"
   d=" M145.845093,134.986420   C145.883057,140.343674 145.921021,145.700943 145.533997,151.554626   C143.591507,152.629242 141.930618,153.924576 140.582581,153.655060   C136.010818,152.741089 131.549728,151.273605 127.185440,149.633057   C127.522614,145.829468 127.720711,142.410385 127.937653,138.577271   C127.985558,136.783752 128.014618,135.404297 128.505966,134.021606   C134.593872,134.341064 140.219482,134.663742 145.845093,134.986420  M141.528442,150.069580   C141.430573,150.284454 141.317154,150.494675 141.250015,150.718750   C141.238724,150.756424 141.427521,150.854034 141.523880,150.923950   C141.600800,150.699387 141.677719,150.474838 141.528442,150.069580  z"
   id="path349" />
<path
   fill="#3ECCC6"
   opacity="1.000000"
   stroke="none"
   d=" M197.619751,80.019943   C201.949417,84.057648 205.899979,88.118759 209.929489,92.507446   C205.633240,94.557060 201.258026,96.279083 196.242355,97.803436   C192.397995,93.076836 189.194107,88.547890 185.990234,84.018951   C189.740387,82.693748 193.490540,81.368546 197.619751,80.019943  z"
   id="path351" />
<path
   fill="#40C8B4"
   opacity="1.000000"
   stroke="none"
   d=" M127.975082,115.993073   C127.986198,113.955803 127.997299,111.918541 128.476303,109.442238   C134.235855,108.995644 139.527512,108.988083 144.872437,109.403595   C145.236008,112.211632 145.546310,114.596596 145.856598,116.981552   C145.893463,118.701447 145.930344,120.421333 145.443314,122.568207   C139.286255,123.000549 133.653107,123.005920 128.012146,122.572327   C127.994583,120.086594 127.984833,118.039833 127.975082,115.993073  z"
   id="path353" />
<path
   fill="#3FC2A9"
   opacity="1.000000"
   stroke="none"
   d=" M128.019958,123.011292   C133.653107,123.005920 139.286255,123.000549 145.376648,122.993042   C145.878891,126.685127 145.923859,130.379349 145.906967,134.529999   C140.219482,134.663742 134.593872,134.341064 128.487686,133.561188   C128.011383,129.739761 128.015671,126.375526 128.019958,123.011292  z"
   id="path355" />
<path
   fill="#3DC6BD"
   opacity="1.000000"
   stroke="none"
   d=" M185.658630,84.163208   C189.194107,88.547890 192.397995,93.076836 195.853973,97.829720   C192.006073,99.705879 187.906082,101.358093 183.395203,102.683746   C179.977753,97.892807 176.971176,93.428436 173.964600,88.964066   C177.752075,87.411865 181.539566,85.859665 185.658630,84.163208  z"
   id="path357" />
<path
   fill="#39B7AC"
   opacity="1.000000"
   stroke="none"
   d=" M156.878830,95.651360   C159.702728,94.213120 162.526611,92.774887 165.773575,91.519913   C168.467743,96.746773 170.738846,101.790359 173.009949,106.833954   C170.248215,108.128021 167.486481,109.422096 164.260315,110.456635   C161.728531,107.458031 159.547379,104.791763 157.703827,101.909531   C157.389893,101.418701 158.522766,100.002426 159.034729,99.287415   C159.456314,100.061768 159.830414,100.562393 160.204529,101.063026   C160.409943,100.861969 160.615372,100.660912 160.820786,100.459854   C160.218323,99.969193 159.615845,99.478531 158.854004,98.706024   C158.089371,97.499908 157.484100,96.575638 156.878830,95.651360  M164.929932,107.524361   C164.717255,107.428101 164.509232,107.316109 164.287460,107.250595   C164.249130,107.239265 164.152588,107.424919 164.082916,107.519577   C164.305267,107.595291 164.527634,107.671005 164.929932,107.524361  M162.470779,102.495872   C162.470779,102.495872 162.514908,102.478256 162.470779,102.495872  z"
   id="path359" />
<path
   fill="#3CC0B6"
   opacity="1.000000"
   stroke="none"
   d=" M173.385666,106.891022   C170.738846,101.790359 168.467743,96.746773 166.091309,91.377945   C168.396530,90.377335 170.807083,89.701965 173.591125,88.995331   C176.971176,93.428436 179.977753,97.892807 183.010040,102.737625   C179.944305,104.394737 176.852844,105.671410 173.385666,106.891022  M174.496246,104.532188   C174.496246,104.532188 174.477386,104.485611 174.496246,104.532188  z"
   id="path361" />
<path
   fill="#35AD8D"
   opacity="1.000000"
   stroke="none"
   d=" M127.046356,150.017593   C131.549728,151.273605 136.010818,152.741089 140.582581,153.655060   C141.930618,153.924576 143.591507,152.629242 145.463318,152.016373   C145.887589,157.990021 145.957596,163.998322 146.077850,170.467987   C145.899216,170.890915 145.670334,170.852493 145.172729,170.338425   C145.379562,165.786362 145.090591,162.463409 139.829391,161.598938   C135.543427,160.894714 131.397812,159.336319 127.108383,157.867554   C126.978607,157.384033 126.930435,157.189636 126.917084,156.559723   C126.983383,154.088669 127.014870,152.053131 127.046356,150.017593  z"
   id="path363" />
<path
   fill="#1E736D"
   opacity="1.000000"
   stroke="none"
   d=" M146.248962,116.984200   C145.546310,114.596596 145.236008,112.211632 144.919006,108.959618   C144.966263,105.139275 145.020218,102.185982 145.397537,99.177902   C146.485779,98.766747 147.250671,98.410393 148.015564,98.054047   C148.775024,97.968422 149.534470,97.882797 150.648926,98.202667   C152.712219,102.777000 154.420517,106.945839 156.128815,111.114685   C154.777359,115.998116 150.161469,115.607307 146.248962,116.984200  z"
   id="path365" />
<path
   fill="#36AB9F"
   opacity="1.000000"
   stroke="none"
   d=" M156.486450,111.223663   C154.420517,106.945839 152.712219,102.777000 151.031143,98.196945   C152.767487,97.132446 154.476593,96.479149 156.532272,95.738602   C157.484100,96.575638 158.089371,97.499908 158.847275,98.712189   C158.999908,99.000198 158.987244,99.013695 158.987244,99.013687   C158.522766,100.002426 157.389893,101.418701 157.703827,101.909531   C159.547379,104.791763 161.728531,107.458031 163.905731,110.499588   C161.625092,110.978935 159.234573,111.155785 156.486450,111.223663  z"
   id="path367" />
<path
   fill="#26E494"
   opacity="1.000000"
   stroke="none"
   d=" M128.013184,269.993439   C128.008987,278.349243 128.004791,286.705017 128.000961,295.529175   C123.850349,296.665039 119.715019,297.468658 115.542458,297.948364   C113.086014,298.230804 110.570473,297.999237 107.554688,297.595215   C106.991692,295.830048 106.955513,294.468506 106.986877,292.679352   C107.326889,286.716034 107.599365,281.180267 107.871834,275.644531   C107.343338,275.256470 106.814842,274.868408 106.286346,274.480377   C102.079300,276.985535 97.872261,279.490692 93.418922,282.004517   C92.745300,282.269409 92.317970,282.525604 91.639130,282.776794   C91.055237,282.813629 90.722870,282.855499 90.197861,282.725403   C89.552078,282.669617 89.098938,282.785797 88.272980,282.909546   C85.608971,283.642273 83.317772,284.367432 80.692886,285.215210   C77.562057,286.551971 74.764908,287.766144 71.640656,288.982666   C70.877167,288.983643 70.440765,288.982208 70.004364,288.980774   C67.917442,288.320648 65.837456,287.115417 63.742466,287.088745   C50.174557,286.915985 36.603233,287.030853 23.033415,286.967957   C20.913116,286.958130 18.794788,286.522675 16.285217,286.117401   C34.012310,278.974152 52.126225,271.988403 70.250099,265.028595   C73.877296,263.635681 77.542419,262.341553 81.907013,261.198090   C84.589653,261.596222 86.554688,261.965332 88.521126,261.972961   C101.676041,262.024170 114.831253,261.998352 127.991730,262.441772   C128.002441,265.255157 128.007812,267.624298 128.013184,269.993439  z"
   id="path369" />
<path
   fill="#43DEB2"
   opacity="1.000000"
   stroke="none"
   d=" M126.882263,156.995239   C126.930435,157.189636 126.978607,157.384033 127.082352,158.263031   C126.287415,163.122940 128.506592,165.422058 132.017685,166.931549   C129.388779,167.620972 126.762939,168.895981 124.130501,168.909729   C96.253693,169.055206 68.375816,168.987778 40.498291,169.026138   C38.539413,169.028824 36.581047,169.404510 34.286011,169.856995   C25.225786,166.483826 16.501997,162.860382 7.505794,159.034393   C9.913434,158.221329 12.591042,157.092896 15.273926,157.080200   C42.846695,156.949799 70.420334,157.013580 97.993660,156.973526   C100.119957,156.970444 102.245720,156.591324 105.022423,156.183380   C106.098228,155.951355 106.523346,155.922943 107.285103,156.144318   C114.041924,156.594498 120.462090,156.794861 126.882263,156.995239  z"
   id="path371" />
<path
   fill="#2DE499"
   opacity="1.000000"
   stroke="none"
   d=" M127.986374,261.997559   C114.831253,261.998352 101.676041,262.024170 88.521126,261.972961   C86.554688,261.965332 84.589653,261.596222 82.287552,261.144226   C89.368065,257.938812 96.829361,255.086441 104.158760,251.927979   C105.396286,251.394684 106.754089,249.601959 106.868828,248.287491   C107.226334,244.191666 107.013664,240.046082 107.552338,235.458466   C114.721024,234.996887 121.359467,234.996613 128.012741,235.366760   C128.057327,236.476395 128.087082,237.215607 128.091599,238.417572   C128.058182,242.581757 128.050003,246.283203 128.031677,250.446136   C128.009811,254.604263 127.998093,258.300903 127.986374,261.997559  z"
   id="path373" />
<path
   fill="#36E2A0"
   opacity="1.000000"
   stroke="none"
   d=" M127.997910,234.996338   C121.359467,234.996613 114.721024,234.996887 107.624725,234.996185   C107.118637,226.638748 107.070389,218.282257 107.551666,209.462265   C114.746918,208.994553 121.412643,208.990341 128.231842,209.348236   C128.605255,212.477890 128.825180,215.245438 128.839996,218.265350   C128.608719,219.555908 128.582565,220.594131 128.444611,222.107300   C128.221146,226.720291 128.109528,230.858307 127.997910,234.996338  z"
   id="path375" />
<path
   fill="#3BE0A6"
   opacity="1.000000"
   stroke="none"
   d=" M128.078369,208.986145   C121.412643,208.990341 114.746918,208.994553 107.623215,208.998322   C108.637566,200.569016 105.385773,195.491791 96.712875,194.247864   C96.398819,194.202820 96.101707,194.039658 95.490929,193.687027   C104.553818,191.651352 113.867935,188.983856 123.311501,188.396133   C129.020508,188.040833 134.930267,190.911819 140.474152,192.667496   C136.653641,194.761444 133.032471,196.385040 129.585159,198.318604   C126.056740,200.297684 125.229843,203.024490 128.179779,206.625488   C128.159866,207.635834 128.119110,208.310989 128.078369,208.986145  z"
   id="path377" />

<path
   fill="#23C280"
   opacity="1.000000"
   stroke="none"
   d=" M83.979324,301.802490   C81.713745,302.662964 79.448174,303.523438 76.997551,304.701172   C76.812508,305.018433 76.395370,305.013763 76.187912,304.591797   C74.642891,299.106628 73.305321,294.043457 71.967758,288.980286   C74.764908,287.766144 77.562057,286.551971 80.686607,285.601074   C81.269661,287.289948 81.429688,288.740936 81.799294,290.136414   C82.815727,293.974060 85.419678,297.505737 83.979324,301.802490  z"
   id="path381" />
<path
   fill="#26D08A"
   opacity="1.000000"
   stroke="none"
   d=" M71.640656,288.982666   C73.305321,294.043457 74.642891,299.106628 75.979553,304.582458   C73.215485,304.429779 70.452324,303.864471 67.323807,302.760803   C65.971146,298.814453 64.983849,295.406433 63.996536,291.998413   C65.832054,291.140015 67.667580,290.281616 69.753738,289.201996   C70.440765,288.982208 70.877167,288.983643 71.640656,288.982666  z"
   id="path383" />
<path
   fill="#22DC8C"
   opacity="1.000000"
   stroke="none"
   d=" M63.631630,292.064667   C64.983849,295.406433 65.971146,298.814453 66.983490,302.606628   C64.970505,302.390656 62.765518,302.096924 60.941822,301.103363   C59.150757,300.127563 57.747055,298.440704 56.173363,297.065887   C57.601864,295.715790 58.948948,294.260742 60.494621,293.061707   C61.221767,292.497620 62.330765,292.425812 63.631630,292.064667  z"
   id="path385" />

<path
   fill="#3FC2A9"
   opacity="1.000000"
   stroke="none"
   d=" M77.020752,143.051025   C76.713470,143.500992 76.406189,143.950943 76.104477,144.675476   C74.006363,144.643829 71.902672,144.337616 69.402313,144.002991   C68.185898,143.399796 67.366158,142.824966 66.272583,141.674500   C66.329193,137.396622 66.659645,133.694397 66.990105,129.992157   C70.082603,128.700439 73.175102,127.408714 76.786469,126.413727   C77.330948,128.622879 77.412384,130.536545 77.370102,132.447464   C77.291878,135.982834 77.141228,139.516602 77.020752,143.051025  z"
   id="path389" />

<path
   fill="#2DC0CD"
   opacity="1.000000"
   stroke="none"
   d=" M176.159180,63.966690   C174.336639,63.206928 172.795441,62.467907 171.254593,61.101990   C174.168976,55.973881 177.083023,51.472679 179.997070,46.971474   C183.422516,47.935558 186.847977,48.899639 190.644119,49.929588   C192.938629,51.115250 194.862457,52.235043 196.915436,53.679676   C193.024139,61.962971 184.627853,61.458496 177.395325,63.990784   C176.816055,64.008888 176.628281,63.998158 176.159180,63.966690  z"
   id="path393" />

<path
   fill="#30C68D"
   opacity="1.000000"
   stroke="none"
   d=" M177.252289,224.907623   C173.350189,223.530060 169.813431,222.111115 166.382050,220.199768   C169.661270,215.150391 172.835114,210.593414 176.008972,206.036438   C179.135651,207.260910 182.262329,208.485382 185.598755,210.205353   C183.619263,214.518173 180.786255,218.188721 183.001831,223.010376   C181.207108,223.628998 179.412384,224.247620 177.252289,224.907623  z"
   id="path397" />
<path
   fill="#29B981"
   opacity="1.000000"
   stroke="none"
   d=" M183.380798,222.979065   C180.786255,218.188721 183.619263,214.518173 185.914459,210.373138   C188.475952,210.795120 190.931488,211.544800 193.679626,212.229492   C196.622086,213.466003 199.271942,214.767502 202.328445,216.268723   C199.209198,217.581406 196.460190,218.738266 193.355927,219.991928   C189.920364,221.041748 186.840073,221.994751 183.380798,222.979065  z"
   id="path399" />
<path
   fill="#40C8B4"
   opacity="1.000000"
   stroke="none"
   d=" M66.613518,130.014374   C66.659645,133.694397 66.329193,137.396622 65.999695,141.539490   C63.997440,141.368561 62.011593,140.690781 59.987202,140.160004   C56.413937,139.223114 55.175720,137.178848 56.870228,133.350967   C60.095329,132.018799 63.166130,131.027695 66.613518,130.014374  z"
   id="path401" />
<path
   fill="#26D08A"
   opacity="1.000000"
   stroke="none"
   d=" M127.991730,262.441772   C127.998093,258.300903 128.009811,254.604263 128.446381,250.479401   C134.241257,250.364380 139.611237,250.677597 144.981232,250.990799   C144.993805,253.726181 145.006363,256.461548 145.022705,259.657593   C144.996552,263.448486 144.966614,266.778656 144.884476,270.564941   C139.497498,270.733643 134.162750,270.446259 128.420578,270.076172   C128.007812,267.624298 128.002441,265.255157 127.991730,262.441772  z"
   id="path403" />
<path
   fill="#29C786"
   opacity="1.000000"
   stroke="none"
   d=" M144.986908,250.528168   C139.611237,250.677597 134.241257,250.364380 128.456543,250.017899   C128.050003,246.283203 128.058182,242.581757 128.430389,238.398010   C130.982956,237.276062 132.216034,234.973038 135.570267,236.143051   C138.505035,237.166763 142.380203,235.494507 145.839935,235.013229   C145.839935,235.013229 145.969833,235.455917 145.998596,235.684799   C145.682434,240.630966 145.337509,245.348236 144.986908,250.528168  M138.530869,237.502884   C138.530869,237.502884 138.485764,237.520844 138.530869,237.502884  z"
   id="path405" />
<path
   fill="#1EAF71"
   opacity="1.000000"
   stroke="none"
   d=" M159.715424,255.059570   C159.379089,255.510361 158.756531,255.999298 158.047791,256.221466   C158.450806,255.669037 158.940002,255.383377 159.715424,255.059570  z"
   id="path407" />
<path
   fill="#1EAF71"
   opacity="1.000000"
   stroke="none"
   d=" M156.114868,266.405945   C154.457901,265.054535 152.798416,263.355865 151.115036,261.306305   C152.885864,260.955414 154.680557,260.955414 156.869217,260.955414   C156.582809,262.886505 156.347595,264.472595 156.114868,266.405945  z"
   id="path409" />
<path
   fill="#1EAF71"
   opacity="1.000000"
   stroke="none"
   d=" M161.483749,266.512543   C161.474564,266.490112 161.492935,266.534973 161.483749,266.512543  z"
   id="path411" />
<path
   fill="#3AB59C"
   opacity="1.000000"
   stroke="none"
   d=" M77.403595,143.024567   C77.141228,139.516602 77.291878,135.982834 77.370102,132.447464   C77.412384,130.536545 77.330948,128.622879 77.150681,126.353256   C80.637573,124.643753 84.279114,123.291451 88.592735,121.820816   C89.588806,121.443321 89.912804,121.184166 90.236809,120.925011   C90.236809,120.925011 90.505852,120.778397 90.702866,121.161118   C90.427155,122.882210 89.820442,124.191765 89.524521,125.568138   C89.291794,126.650589 89.416794,127.815796 89.429451,128.943710   C89.446373,130.450516 89.725517,131.990784 89.496628,133.454849   C89.202950,135.333344 88.516411,137.150421 87.999146,138.993958   C84.594917,140.328674 81.190681,141.663391 77.403595,143.024567  z"
   id="path413" />
<path
   fill="#35AD8D"
   opacity="1.000000"
   stroke="none"
   d=" M88.373901,138.978653   C88.516411,137.150421 89.202950,135.333344 89.496628,133.454849   C89.725517,131.990784 89.446373,130.450516 89.429451,128.943710   C89.416794,127.815796 89.291794,126.650589 89.524521,125.568138   C89.820442,124.191765 90.427155,122.882210 90.855675,121.150246   C92.971817,119.650429 95.132156,118.544212 97.601196,117.325577   C97.924126,117.624329 97.938370,118.035484 97.798492,119.002060   C94.678734,122.291138 98.539848,122.201599 99.314384,123.145454   C100.396126,124.463676 102.854630,125.145576 99.928596,126.767471   C99.610947,126.194695 99.340637,125.883217 99.070328,125.571739   C98.908623,125.759834 98.746918,125.947929 98.585220,126.136024   C99.066376,126.416077 99.547523,126.696136 100.084076,127.249878   C100.116531,129.023560 100.093597,130.523560 100.070656,132.023560   C96.296654,134.336823 92.522652,136.650085 88.373901,138.978653  M95.043022,124.623810   C95.480354,124.403534 95.917679,124.183258 96.355003,123.962975   C96.185158,123.747467 96.015320,123.531960 95.845490,123.316460   C95.470757,123.622986 95.096016,123.929504 95.043022,124.623810  M97.235657,128.524796   C97.048210,128.792877 96.860756,129.060959 96.673302,129.329041   C96.950836,129.157364 97.228378,128.985672 97.235657,128.524796  z"
   id="path415" />
<path
   fill="#35AD8D"
   opacity="1.000000"
   stroke="none"
   d=" M89.930786,121.014595   C89.912804,121.184166 89.588806,121.443321 88.978348,121.830841   C89.002838,121.674187 89.313805,121.389183 89.930786,121.014595  z"
   id="path417" />
<path
   fill="#46DABF"
   opacity="1.000000"
   stroke="none"
   d=" M107.164787,138.997025   C107.040840,136.778015 106.916893,134.559021 106.656006,131.733826   C106.850586,126.415848 107.182106,121.704048 107.513626,116.992256   C114.055962,116.679626 120.598289,116.366997 127.557854,116.023727   C127.984833,118.039833 127.994583,120.086594 128.012146,122.572327   C128.015671,126.375526 128.011383,129.739761 128.025391,133.564423   C128.014618,135.404297 127.985558,136.783752 127.478043,138.579681   C120.387985,138.996429 113.776382,138.996719 107.164787,138.997025  z"
   id="path419" />
<path
   fill="#40CDC0"
   opacity="1.000000"
   stroke="none"
   d=" M145.074188,99.232697   C145.020218,102.185982 144.966263,105.139275 144.865723,108.536537   C139.527512,108.988083 134.235855,108.995644 128.478149,109.005692   C128.006927,105.974602 128.001770,102.941025 127.993851,99.453117   C127.995071,97.610809 127.999062,96.222839 128.420715,94.389847   C134.225586,93.962204 139.612793,93.979576 145.000000,93.996948   C145.000000,93.996948 145.000000,94.000000 144.999451,94.434891   C145.024017,96.324089 145.049103,97.778389 145.074188,99.232697  z"
   id="path421" />
<path
   fill="#1E736D"
   opacity="1.000000"
   stroke="none"
   d=" M107.433212,116.634003   C107.182106,121.704048 106.850586,126.415848 106.324226,131.487915   C104.398438,131.904053 102.667488,131.959900 100.503601,132.019653   C100.093597,130.523560 100.116531,129.023560 100.070152,127.262283   C100.000839,127.001015 99.975929,127.028770 99.975929,127.028770   C102.854630,125.145576 100.396126,124.463676 99.314384,123.145454   C98.539848,122.201599 94.678734,122.291138 97.812859,119.311691   C98.152565,119.017868 98.323799,118.969810 99.025970,118.726906   C100.037598,117.687744 100.518288,116.843422 100.998978,115.999092   C103.111275,116.220802 105.420868,111.911652 107.433212,116.634003  z"
   id="path423" />
<path
   fill="#46DAC1"
   opacity="1.000000"
   stroke="none"
   d=" M100.698059,116.084671   C100.518288,116.843422 100.037598,117.687744 99.272705,118.625443   C99.458046,117.869301 99.927597,117.019783 100.698059,116.084671  z"
   id="path425" />
<path
   fill="#3FD1CC"
   opacity="1.000000"
   stroke="none"
   d=" M145.001251,93.534607   C139.612793,93.979576 134.225586,93.962204 128.420837,93.973427   C128.001450,91.630669 127.999573,89.259308 127.996567,86.443672   C128.298203,79.229362 128.903473,78.818329 138.300232,79.001396   C143.993301,79.112297 144.936523,80.113258 144.996964,86.166405   C145.019943,88.468147 145.001862,90.770302 145.001251,93.534607  z"
   id="path427" />
<path
   fill="#3FD1CC"
   opacity="1.000000"
   stroke="none"
   d=" M145.397537,99.177902   C145.049103,97.778389 145.024017,96.324089 145.000977,94.435211   C145.966293,95.125496 146.929535,96.250336 147.954163,97.714615   C147.250671,98.410393 146.485779,98.766747 145.397537,99.177902  z"
   id="path429" />
<path
   fill="#2DCADA"
   opacity="1.000000"
   stroke="none"
   d=" M179.747330,46.725815   C177.083023,51.472679 174.168976,55.973881 171.102814,60.792995   C167.190048,59.796413 163.429443,58.481926 159.330688,57.000832   C160.064011,54.655350 161.085526,52.449966 162.223495,50.306400   C163.056412,48.737415 164.042328,47.249649 164.976898,45.364094   C170.166138,42.179569 174.880249,43.854988 179.747330,46.725815  z"
   id="path431" />
<path
   fill="#38D99E"
   opacity="1.000000"
   stroke="none"
   d=" M128.158936,206.290298   C125.229843,203.024490 126.056740,200.297684 129.585159,198.318604   C133.032471,196.385040 136.653641,194.761444 140.599548,192.999969   C141.445023,192.999924 141.889420,193.001694 142.667175,193.005493   C146.780853,194.573975 150.561172,196.140427 154.496552,198.144287   C151.096985,202.743225 147.542389,206.904785 143.617188,211.014313   C138.217361,209.404968 133.188141,207.847626 128.158936,206.290298  z"
   id="path433" />
<path
   fill="#207E66"
   opacity="1.000000"
   stroke="none"
   d=" M132.391174,166.985046   C128.506592,165.422058 126.287415,163.122940 127.163940,158.552170   C131.397812,159.336319 135.543427,160.894714 139.829391,161.598938   C145.090591,162.463409 145.379562,165.786362 144.834595,170.255646   C140.765015,169.445175 136.764847,168.241852 132.391174,166.985046  z"
   id="path435" />
<path
   fill="#33CD93"
   opacity="1.000000"
   stroke="none"
   d=" M175.682892,205.880524   C172.835114,210.593414 169.661270,215.150391 166.192322,219.879608   C163.040817,219.049957 160.184418,218.048050 157.102524,216.536011   C159.251266,211.347565 161.625504,206.669266 163.999756,201.990967   C164.748550,201.998444 165.497375,202.005920 166.620483,202.020203   C169.782135,203.259521 172.569473,204.492065 175.682892,205.880524  z"
   id="path437" />
<path
   fill="#35D398"
   opacity="1.000000"
   stroke="none"
   d=" M163.734680,201.765625   C161.625504,206.669266 159.251266,211.347565 156.776398,216.429718   C153.376434,215.570847 150.077103,214.308121 146.228119,212.860199   C145.114914,212.138779 144.551361,211.602570 143.987808,211.066345   C147.542389,206.904785 151.096985,202.743225 154.827484,198.295135   C157.825470,199.185806 160.647537,200.363052 163.734680,201.765625  z"
   id="path439" />
<path
   fill="#45DEB6"
   opacity="1.000000"
   stroke="none"
   d=" M107.092102,139.459656   C113.776382,138.996719 120.387985,138.996429 127.459198,138.993729   C127.720711,142.410385 127.522614,145.829468 127.185440,149.633057   C127.014870,152.053131 126.983383,154.088669 126.917084,156.559723   C120.462090,156.794861 114.041924,156.594498 107.285103,156.144318   C106.972107,150.570435 106.995758,145.246368 107.092102,139.459656  z"
   id="path441" />
<path
   fill="#35AD8D"
   opacity="1.000000"
   stroke="none"
   d=" M141.641541,150.159927   C141.677719,150.474838 141.600800,150.699387 141.523880,150.923950   C141.427521,150.854034 141.238724,150.756424 141.250015,150.718750   C141.317154,150.494675 141.430573,150.284454 141.641541,150.159927  z"
   id="path443" />
<path
   fill="#36AB9F"
   opacity="1.000000"
   stroke="none"
   d=" M159.006653,98.994034   C159.615845,99.478531 160.218323,99.969193 160.820786,100.459854   C160.615372,100.660912 160.409943,100.861969 160.204529,101.063026   C159.830414,100.562393 159.456314,100.061768 159.034729,99.287415   C158.987244,99.013695 158.999908,99.000198 159.006653,98.994034  z"
   id="path445" />
<path
   fill="#36AB9F"
   opacity="1.000000"
   stroke="none"
   d=" M164.839966,107.635544   C164.527634,107.671005 164.305267,107.595291 164.082916,107.519577   C164.152588,107.424919 164.249130,107.239265 164.287460,107.250595   C164.509232,107.316109 164.717255,107.428101 164.839966,107.635544  z"
   id="path447" />
<path
   fill="#36AB9F"
   opacity="1.000000"
   stroke="none"
   d=" M162.492844,102.487061   C162.514908,102.478256 162.470779,102.495872 162.492844,102.487061  z"
   id="path449" />
<path
   fill="#39B7AC"
   opacity="1.000000"
   stroke="none"
   d=" M174.486816,104.508896   C174.477386,104.485611 174.496246,104.532188 174.486816,104.508896  z"
   id="path451" />
<path
   fill="#148E58"
   opacity="1.000000"
   stroke="none"
   d=" M106.986877,292.679352   C105.489014,293.661011 104.058685,294.215118 102.311943,294.469208   C101.385597,292.363403 100.840233,290.531921 100.137268,288.763092   C99.808052,287.934692 98.656151,287.143921 98.763069,286.478455   C99.463554,282.118652 96.492729,282.188416 93.665222,281.995880   C97.872261,279.490692 102.079300,276.985535 106.286346,274.480377   C106.814842,274.868408 107.343338,275.256470 107.871834,275.644531   C107.599365,281.180267 107.326889,286.716034 106.986877,292.679352  z"
   id="path453" />
<path
   fill="#1CBA76"
   opacity="1.000000"
   stroke="none"
   d=" M84.326744,301.750549   C85.419678,297.505737 82.815727,293.974060 81.799294,290.136414   C81.429688,288.740936 81.269661,287.289948 81.020294,285.478455   C83.317772,284.367432 85.608971,283.642273 88.710663,282.917236   C89.810944,282.910675 90.100723,282.904022 90.390495,282.897369   C90.722870,282.855499 91.055237,282.813629 91.589447,283.124268   C90.377983,288.381317 90.259789,293.263062 92.048553,298.111298   C89.590424,299.307068 87.132294,300.502838 84.326744,301.750549  z"
   id="path455" />
<path
   fill="#1EAF71"
   opacity="1.000000"
   stroke="none"
   d=" M92.432022,298.071075   C90.259789,293.263062 90.377983,288.381317 91.840965,283.129333   C92.317970,282.525604 92.745300,282.269409 93.418930,282.004517   C96.492729,282.188416 99.463554,282.118652 98.763069,286.478455   C98.656151,287.143921 99.808052,287.934692 100.137268,288.763092   C100.840233,290.531921 101.385597,292.363403 101.977158,294.513092   C98.911026,295.914917 95.863258,296.972900 92.432022,298.071075  z"
   id="path457" />
<path
   fill="#1EAF71"
   opacity="1.000000"
   stroke="none"
   d=" M90.197861,282.725403   C90.100723,282.904022 89.810944,282.910675 89.083481,282.909668   C89.098938,282.785797 89.552078,282.669617 90.197861,282.725403  z"
   id="path459" />
<path
   fill="#29B981"
   opacity="1.000000"
   stroke="none"
   d=" M145.904617,234.571930   C142.380203,235.494507 138.505035,237.166763 135.570267,236.143051   C132.216034,234.973038 130.982956,237.276062 128.455627,237.935272   C128.087082,237.215607 128.057327,236.476395 128.012726,235.366760   C128.109528,230.858307 128.221146,226.720291 128.657166,222.145935   C129.274643,221.752106 129.567825,221.794159 130.212006,221.945831   C137.192780,226.762054 137.192780,226.762054 141.407928,222.098648   C142.889252,223.743256 144.359146,225.375168 145.829041,227.007065   C145.875793,229.381592 145.922546,231.756104 145.904617,234.571930  z"
   id="path461" />
<path
   fill="#147B5D"
   opacity="1.000000"
   stroke="none"
   d=" M143.617188,211.014313   C144.551361,211.602570 145.114914,212.138779 145.852722,212.910461   C146.026581,213.571915 146.026184,213.997910 145.851730,214.833344   C145.501984,215.524979 145.579575,215.760529 145.910431,215.949402   C145.938599,216.422836 145.966766,216.896255 145.552673,217.716431   C140.414185,218.706360 135.717941,219.349518 131.013870,219.994873   C131.006027,219.997055 131.008209,219.982468 131.050476,219.643814   C131.095261,218.850189 131.097778,218.395218 131.285309,217.821442   C131.704071,217.514694 131.903366,217.295425 132.137970,216.990387   C132.207733,216.935913 132.189209,216.690094 132.189209,216.690094   C132.189209,216.690094 131.950790,216.926422 131.773849,217.064972   C131.375320,217.407257 131.193405,217.641754 130.790436,217.937332   C130.355103,217.979126 130.180481,217.990601 129.765656,218.002716   C129.525452,218.003342 129.045120,218.012985 129.045120,218.012985   C128.825180,215.245438 128.605255,212.477890 128.231842,209.348236   C128.119110,208.310989 128.159866,207.635834 128.179779,206.625488   C133.188141,207.847626 138.217361,209.404968 143.617188,211.014313  z"
   id="path463" />
<path
   fill="#207E66"
   opacity="1.000000"
   stroke="none"
   d=" M128.839996,218.265350   C129.045120,218.012985 129.525452,218.003342 129.796753,218.291428   C130.381424,219.047165 130.694824,219.514816 131.008209,219.982468   C131.008209,219.982468 131.006027,219.997055 130.870178,220.227173   C130.443253,220.916794 130.152161,221.376282 129.861069,221.835785   C129.567825,221.794159 129.274643,221.752106 128.768982,221.670975   C128.582565,220.594131 128.608719,219.555908 128.839996,218.265350  z"
   id="path465" />
<path
   fill="#1EAF71"
   opacity="1.000000"
   stroke="none"
   d=" M130.212006,221.945831   C130.152161,221.376282 130.443253,220.916794 130.878021,220.225006   C135.717941,219.349518 140.414185,218.706360 145.473419,218.064392   C145.867920,220.748932 145.899429,223.432236 145.880005,226.561310   C144.359146,225.375168 142.889252,223.743256 141.407928,222.098648   C137.192780,226.762054 137.192780,226.762054 130.212006,221.945831  z"
   id="path467" />
<path
   fill="#1EAF71"
   opacity="1.000000"
   stroke="none"
   d=" M145.947144,215.725342   C145.579575,215.760529 145.501984,215.524979 145.794525,215.147903   C145.911392,215.053040 145.983856,215.501297 145.947144,215.725342  z"
   id="path469" />
<path
   fill="#29B981"
   opacity="1.000000"
   stroke="none"
   d=" M138.508316,237.511871   C138.485764,237.520844 138.530869,237.502884 138.508316,237.511871  z"
   id="path471" />
<path
   fill="#1E736D"
   opacity="1.000000"
   stroke="none"
   d=" M94.882156,124.429916   C95.096016,123.929504 95.470757,123.622986 95.845490,123.316452   C96.015320,123.531960 96.185158,123.747467 96.355003,123.962982   C95.917679,124.183258 95.480354,124.403534 94.882156,124.429916  z"
   id="path473" />
<path
   fill="#1E736D"
   opacity="1.000000"
   stroke="none"
   d=" M100.014755,126.988602   C99.547523,126.696136 99.066376,126.416077 98.585220,126.136024   C98.746918,125.947929 98.908623,125.759834 99.070328,125.571739   C99.340637,125.883217 99.610947,126.194695 99.928596,126.767471   C99.975929,127.028770 100.000839,127.001015 100.014755,126.988602  z"
   id="path475" />
<path
   fill="#1E736D"
   opacity="1.000000"
   stroke="none"
   d=" M97.370789,128.669403   C97.228378,128.985672 96.950836,129.157364 96.673302,129.329041   C96.860756,129.060959 97.048210,128.792877 97.370789,128.669403  z"
   id="path477" />
<path
   fill="#1EAF71"
   opacity="1.000000"
   stroke="none"
   d=" M131.050476,219.643814   C130.694824,219.514816 130.381424,219.047165 130.036957,218.290802   C130.180481,217.990601 130.355103,217.979126 130.778793,217.979156   C131.027878,217.990662 131.100296,217.940247 131.100296,217.940247   C131.097778,218.395218 131.095261,218.850189 131.050476,219.643814  z"
   id="path479" />
<path
   fill="#207E66"
   opacity="1.000000"
   stroke="none"
   d=" M131.039520,217.948837   C131.193405,217.641754 131.375320,217.407257 131.801331,217.096436   C132.005768,216.989334 132.068222,217.044846 132.068222,217.044846   C131.903366,217.295425 131.704071,217.514694 131.285309,217.821442   C131.100296,217.940247 131.027878,217.990662 131.039520,217.948837  z"
   id="path481" />
<path
   fill="#207E66"
   opacity="1.000000"
   stroke="none"
   d=" M131.978271,216.957886   C131.950790,216.926422 132.189209,216.690094 132.189209,216.690094   C132.189209,216.690094 132.207733,216.935913 132.137970,216.990387   C132.068222,217.044846 132.005768,216.989334 131.978271,216.957886  z"
   id="path483" />
</svg>
